<svg width="198" height="30" viewBox="0 0 198 30" fill="none" xmlns="http://www.w3.org/2000/svg">
<path fill-rule="evenodd" clip-rule="evenodd" d="M175.907 15.02C175.907 24.8449 172.574 29.7566 165.906 29.7551C162.594 29.7551 160.095 28.5028 158.41 25.9984C156.725 23.494 155.884 19.8345 155.885 15.02C155.885 5.20961 159.219 0.304443 165.885 0.304443C169.146 0.304443 171.631 1.53362 173.341 3.99197C175.051 6.45031 175.907 10.1263 175.907 15.02ZM169.522 15.02C169.522 11.1673 169.233 8.6029 168.655 7.32686C168.076 6.05083 167.154 5.41242 165.889 5.41166C164.637 5.41166 163.722 6.05352 163.142 7.33724C162.562 8.62096 162.27 11.1819 162.267 15.02C162.267 18.7843 162.553 21.331 163.126 22.66C163.698 23.9891 164.617 24.6517 165.883 24.6479C167.137 24.6479 168.056 24.0133 168.642 22.7442C169.227 21.475 169.522 18.9003 169.527 15.02H169.522ZM66.4315 0.743421H72.4917V12.6633L79.1915 0.743421H85.3209L78.3964 11.2494L85.9074 29.3137H79.6432L74.7907 16.1596L72.4975 19.6005V29.3137H66.4315V0.743421ZM87.8573 0.743421H104.626V5.64207H93.9187V12.2773H102.242V17.176H93.9187V24.2053H104.626V29.3125H87.8573V0.743421ZM113.244 0.743421H107.184V29.316H122.133V23.9575H113.244V0.743421ZM124.387 0.743421H130.448V23.9575H139.335V29.316H124.387V0.743421ZM154.784 0.743421H137.589V6.10301H143.085V29.316H149.146V6.10301H154.784V0.743421ZM186.222 0.743421H179.493L179.492 29.3217H184.18V8.64048L192.584 29.3217H198V0.743421H193.313V18.4896L186.222 0.743421Z" fill="white"/>
<path fill-rule="evenodd" clip-rule="evenodd" d="M58.4519 14.5835C58.4552 14.5594 58.4583 14.5371 58.4614 14.5139C58.4873 14.3507 58.5099 14.1873 58.5304 14.0217C58.5338 13.9942 58.538 13.9673 58.5423 13.9395C58.5445 13.9199 58.5454 13.8991 58.5475 13.8784C58.601 13.7003 58.6193 13.5135 58.6016 13.3284C58.6016 13.2924 58.6059 13.2563 58.608 13.22C58.6187 13.0571 58.6294 12.8924 58.6349 12.7271C58.6349 12.6837 58.638 12.6397 58.6404 12.597C58.6456 12.4063 58.6945 12.2478 58.6936 12.0537C58.6936 12.0125 58.681 11.9431 58.681 11.901C58.678 11.7277 58.6719 11.5759 58.6655 11.399C58.7 11.3791 58.667 11.3131 58.6655 11.2786C58.656 11.0785 58.6322 10.8814 58.6138 10.6795C58.6105 10.6345 58.6095 10.5572 58.6053 10.5102C58.5878 10.3205 58.5747 10.1808 58.5509 9.98834C58.5475 9.96878 58.5316 9.91715 58.5307 9.89668C58.5029 9.68922 58.4763 9.51996 58.4418 9.30884C58.4332 9.26056 58.4265 9.18326 58.4189 9.13407C58.3801 8.9202 58.2878 8.67944 58.2426 8.4619L55.9328 8.8487C55.9737 9.0473 56.0092 9.2459 56.0425 9.44021C56.051 9.48604 56.0596 9.53188 56.066 9.5774C56.0984 9.77019 56.1271 9.96267 56.1521 10.153C56.1543 10.1735 56.1576 10.1955 56.1586 10.2169C56.1812 10.391 56.2005 10.5642 56.2166 10.7363C56.2212 10.7794 56.2242 10.8227 56.2285 10.8646C56.2438 11.051 56.2591 11.2343 56.2664 11.417C56.2686 11.4506 56.2695 11.4845 56.2716 11.5172C56.2783 11.6776 56.2835 11.8368 56.2847 11.9948C56.2847 12.0345 56.2869 12.0733 56.2869 12.1121C56.2869 12.2902 56.2869 12.4671 56.2792 12.6419C56.2792 12.6816 56.2771 12.7204 56.2759 12.7592C56.2695 12.912 56.2618 13.0669 56.2514 13.2196C56.2493 13.2502 56.2469 13.2808 56.2459 13.3113C56.2328 13.4839 56.2154 13.6544 56.1964 13.8243C56.1922 13.8646 56.1867 13.9047 56.1812 13.9465C56.1631 14.1032 56.1415 14.26 56.1167 14.4146C56.1146 14.4308 56.1124 14.4491 56.1091 14.4662C56.0813 14.6333 56.051 14.7999 56.0174 14.9645C56.0101 15.003 56.0024 15.0421 55.9936 15.08C55.9765 15.1671 55.9551 15.2533 55.9346 15.3394C55.8989 15.4922 55.8601 15.645 55.8203 15.7962C55.8011 15.8634 55.7828 15.9306 55.7644 15.9972C55.7128 16.1763 55.6566 16.3532 55.5976 16.5289C55.5878 16.5594 55.5793 16.59 55.5698 16.6205C55.4986 16.824 55.4219 17.0241 55.3413 17.2215C55.3199 17.2747 55.2973 17.3284 55.2734 17.3819C55.2123 17.5267 55.1488 17.6706 55.0831 17.8097C55.0525 17.8708 55.022 17.9337 54.9936 17.9957C54.9249 18.1363 54.8528 18.2753 54.7773 18.4128C54.7504 18.4611 54.7268 18.5102 54.6987 18.5585C54.5967 18.7397 54.4919 18.9172 54.3822 19.0923C54.3608 19.1265 54.337 19.1601 54.3147 19.1959C54.223 19.3352 54.1314 19.4733 54.0348 19.6083C53.9969 19.663 53.9572 19.7162 53.9175 19.7696C53.8301 19.8894 53.7397 20.0058 53.6495 20.1204C53.6108 20.1703 53.5716 20.2197 53.5319 20.2686C53.4097 20.4177 53.2835 20.5643 53.1521 20.7076C53.1457 20.7167 53.1385 20.7253 53.1307 20.7333C52.9939 20.8833 52.8515 21.0287 52.7064 21.1711C52.6611 21.216 52.6147 21.2582 52.5695 21.3013C52.4641 21.4012 52.3599 21.4987 52.2508 21.5952C52.1995 21.641 52.1478 21.6865 52.0959 21.7315C51.9764 21.8332 51.8539 21.9322 51.7293 22.0297C51.6929 22.0602 51.655 22.0908 51.6174 22.1213C51.4561 22.2454 51.2911 22.3654 51.1225 22.4816C51.0828 22.5094 51.0418 22.535 51.0003 22.5625C50.8689 22.6505 50.7341 22.7376 50.5997 22.8204C50.5426 22.8558 50.4854 22.8904 50.4274 22.924C50.298 23.0005 50.1668 23.0753 50.0336 23.1482C49.9819 23.1763 49.9291 23.2057 49.8774 23.2335C49.6941 23.3297 49.5062 23.4238 49.3156 23.5124C49.3027 23.5179 49.2896 23.5237 49.2758 23.5289C49.1014 23.6099 48.9236 23.686 48.743 23.759C48.6718 23.7895 48.6 23.8143 48.5291 23.8418C48.3968 23.8934 48.2624 23.9435 48.1255 23.9903C48.0491 24.0168 47.9706 24.0425 47.893 24.0685C47.7604 24.1125 47.6238 24.1528 47.4882 24.1928C47.4096 24.2158 47.3311 24.2381 47.2514 24.2597C47.105 24.3004 46.9565 24.3364 46.8081 24.3713C46.7381 24.3875 46.6703 24.4055 46.6003 24.4202C46.3904 24.4669 46.1793 24.5072 45.9651 24.5424C45.922 24.5503 45.8789 24.5561 45.8362 24.5631C45.6605 24.5909 45.4851 24.616 45.3076 24.6374C45.2385 24.6459 45.1707 24.6539 45.102 24.6606C44.9318 24.6795 44.7607 24.6942 44.5887 24.707C44.5337 24.7107 44.4787 24.7159 44.4249 24.7183C44.1903 24.733 43.9532 24.7425 43.7155 24.7458C43.5713 24.7477 43.4259 24.7477 43.2795 24.7458C43.2355 24.7458 43.1903 24.7431 43.145 24.7416C43.0491 24.7397 42.9525 24.737 42.8545 24.7327C42.7909 24.73 42.7261 24.7269 42.6608 24.7223C42.5777 24.7183 42.4949 24.7138 42.4108 24.7077C42.3528 24.7034 42.2914 24.6985 42.2321 24.6933C42.1148 24.6838 41.9996 24.674 41.8823 24.6627C41.7397 24.6481 41.5984 24.6309 41.4585 24.6111C41.4108 24.6041 41.3647 24.5974 41.3183 24.5894C41.2266 24.5757 41.1349 24.5628 41.0433 24.5463C40.9874 24.5369 40.9314 24.5259 40.8765 24.5158C40.7946 24.5005 40.7148 24.4852 40.6354 24.4684C40.5783 24.4565 40.5211 24.4434 40.4643 24.4308C40.3867 24.4131 40.3091 24.3954 40.2327 24.3765C40.1832 24.3642 40.1328 24.3523 40.0842 24.3392C39.9421 24.3022 39.801 24.2634 39.6614 24.2219C39.6452 24.2167 39.6277 24.2124 39.6106 24.2066C39.4579 24.1598 39.3051 24.11 39.1523 24.0566C39.1148 24.0434 39.076 24.0291 39.0371 24.0159C38.9122 23.9704 38.7884 23.9243 38.6656 23.8745C38.6351 23.8635 38.6045 23.8522 38.5776 23.8403C38.4322 23.7791 38.2871 23.718 38.1438 23.6539C38.1157 23.6401 38.0866 23.6273 38.0598 23.6145C37.8899 23.5369 37.7218 23.455 37.5559 23.37C37.5495 23.3664 37.544 23.3636 37.5388 23.3612C37.372 23.275 37.2095 23.1852 37.0469 23.0932C37.0164 23.0743 36.9858 23.0578 36.9553 23.0398C36.7982 22.9481 36.6464 22.8564 36.4945 22.7605L36.4029 22.7009C36.3112 22.6432 36.2241 22.5821 36.134 22.5216C36.0146 22.4415 35.8959 22.3593 35.7777 22.275C35.7041 22.2225 35.6311 22.1708 35.559 22.1174C35.4407 22.0294 35.3234 21.9408 35.2082 21.8503C35.1413 21.7984 35.0726 21.7467 35.0069 21.6933C34.8819 21.5934 34.7582 21.4901 34.6344 21.3877C34.5794 21.3413 34.5226 21.2961 34.4676 21.2475C34.293 21.0984 34.1211 20.9456 33.9519 20.7892C33.9477 20.787 33.9441 20.784 33.9412 20.7803C33.7487 20.6047 33.5593 20.4244 33.3698 20.2408C32.6754 19.564 31.8694 18.9349 31.2278 18.2243L31.1972 18.1888L31.6149 18.6612L31.6524 18.7033C31.7135 18.7724 31.7746 18.8421 31.8358 18.9105C31.8605 18.9371 31.884 18.9637 31.9088 18.9905C31.9393 19.0266 31.9723 19.0626 32.0044 19.0984C32.0863 19.1901 32.1703 19.2774 32.2531 19.367C32.3359 19.4565 32.4202 19.5503 32.5052 19.6419C32.6234 19.7696 32.7441 19.8943 32.8648 20.0196C32.9464 20.1048 33.0261 20.191 33.1092 20.2747C33.2427 20.41 33.3759 20.5445 33.5107 20.6771C33.5807 20.7452 33.6482 20.8231 33.7194 20.8909C33.8959 21.098 34.095 21.2846 34.313 21.4473C34.3182 21.4525 34.3371 21.4696 34.3417 21.476C34.5278 21.6484 34.6888 21.8522 34.9122 21.9893C34.9733 22.041 35.046 22.0779 35.1071 22.1296C35.2076 22.2142 35.3002 22.3166 35.4025 22.3994C35.4349 22.4259 35.4542 22.4525 35.4887 22.4794C35.5357 22.5741 35.6494 22.5998 35.7237 22.6572C35.8495 22.7547 35.9656 22.8326 36.0937 22.927C36.1734 22.9854 36.2727 23.0471 36.3546 23.1045C36.4074 23.1436 36.4588 23.1962 36.5122 23.2338C36.5856 23.2845 36.6626 23.3328 36.7359 23.3829C36.7884 23.4171 36.8419 23.4382 36.8938 23.4718C36.9458 23.5054 36.9855 23.539 37.0341 23.5692C37.0665 23.59 37.0976 23.6172 37.1288 23.638C37.2978 23.7431 37.4404 23.8308 37.6106 23.9304C37.6225 23.9374 37.6372 23.9609 37.6479 23.9677C37.6662 23.9784 37.705 23.9835 37.7224 23.9936C37.9021 24.0963 38.028 24.1892 38.2113 24.2833C38.2156 24.2857 38.2672 24.2903 38.2724 24.2918C38.4533 24.3853 38.5996 24.4877 38.7857 24.5729C38.804 24.5824 38.8419 24.6007 38.8602 24.6102C38.8563 24.6685 38.9171 24.6279 38.929 24.6331C39.0818 24.7028 39.2379 24.7046 39.3962 24.7685C39.405 24.7718 39.4151 24.774 39.4249 24.7782C39.4475 24.7877 39.468 24.7972 39.4918 24.807C39.6244 24.8595 39.7555 24.9114 39.889 24.9597C39.9149 24.9689 39.9449 24.9756 39.9709 24.9851C39.988 24.9909 40.0051 24.9964 40.0225 25.0016C40.1872 25.0593 40.3528 25.1146 40.5208 25.1653C40.5245 25.1661 40.5281 25.1672 40.5315 25.1687C40.5446 25.173 40.5572 25.1757 40.5703 25.18C40.7231 25.2258 40.8801 25.2689 41.0375 25.3089C41.0613 25.3154 41.0836 25.3221 41.1074 25.3282C41.1313 25.3343 41.1634 25.341 41.1915 25.3484C41.2773 25.3697 41.3635 25.3893 41.4509 25.4095C41.4893 25.418 41.5251 25.4281 41.5627 25.4351C41.5853 25.4403 41.6079 25.4446 41.6305 25.4489C41.7188 25.4681 41.8102 25.4852 41.8985 25.5017C41.9415 25.51 41.9837 25.5198 42.0277 25.5274L42.0751 25.5341C42.1731 25.5515 42.2733 25.5647 42.372 25.5818C42.4163 25.5876 42.4582 25.5965 42.5025 25.6023C42.5111 25.603 42.5197 25.6043 42.5282 25.6059C42.6809 25.6264 42.8319 25.6453 42.9865 25.6609C43.0036 25.6609 43.021 25.6652 43.0369 25.667C43.0528 25.6689 43.0696 25.6695 43.0867 25.6713C43.1038 25.6731 43.12 25.6737 43.1362 25.6765L43.1857 25.6811C43.2437 25.686 43.3042 25.6893 43.362 25.6945C43.4063 25.6982 43.4493 25.7034 43.4924 25.7067C43.5141 25.7086 43.5355 25.7086 43.5569 25.7101C43.5841 25.7101 43.6107 25.7153 43.6388 25.7168C43.713 25.7223 43.7885 25.7248 43.8627 25.7291C43.9058 25.7309 43.9489 25.7342 43.992 25.7367C44.0057 25.7367 44.0198 25.7367 44.0329 25.7367C44.0522 25.7367 44.0705 25.7394 44.0897 25.7404C44.1747 25.7437 44.2587 25.7446 44.3449 25.7462C44.3922 25.7483 44.4405 25.7504 44.4869 25.7514H44.5355C44.684 25.7535 44.8316 25.7535 44.9779 25.7514C45.039 25.7514 45.0952 25.748 45.1533 25.7477C45.2113 25.7474 45.2706 25.7437 45.3274 25.7425C45.3843 25.7413 45.4439 25.7382 45.5019 25.7355C45.56 25.7327 45.6171 25.7294 45.6742 25.7269C45.699 25.7269 45.7216 25.7226 45.7454 25.7217C45.8065 25.7174 45.8713 25.7122 45.9324 25.7071C46.0497 25.6994 46.167 25.6924 46.2835 25.6811C46.3513 25.6753 46.4191 25.6655 46.4869 25.6582C46.5603 25.6502 46.6345 25.6417 46.7088 25.6328C46.7656 25.6252 46.8249 25.6209 46.8829 25.6129C47.0176 25.5949 47.1499 25.5726 47.2844 25.5518C47.3296 25.5448 47.3782 25.539 47.4234 25.5311L47.4729 25.5231C47.6686 25.4895 47.8621 25.4519 48.0534 25.4104C48.0751 25.4058 48.0965 25.4009 48.1182 25.3957C48.19 25.3801 48.2612 25.3612 48.3342 25.3441C48.4564 25.3163 48.5786 25.2891 48.6981 25.2576C48.7402 25.2475 48.78 25.2338 48.8203 25.2225C48.9086 25.1993 48.9947 25.1733 49.0809 25.1485C49.1671 25.1238 49.2465 25.1027 49.3272 25.0777C49.3907 25.0578 49.453 25.0355 49.5157 25.0147C49.6028 24.9863 49.6898 24.9579 49.776 24.927C49.831 24.9078 49.8878 24.8913 49.9428 24.8717C50.0311 24.8412 50.1164 24.8045 50.2025 24.7709C50.2887 24.7373 50.366 24.7098 50.4469 24.6759C50.4775 24.663 50.5114 24.6517 50.5447 24.638C50.7005 24.5741 50.8536 24.5051 51.0064 24.4354L51.0601 24.4122C51.0631 24.4116 51.0658 24.4101 51.0678 24.4079C51.2734 24.3132 51.4748 24.2121 51.6737 24.107C51.7348 24.0764 51.7922 24.0431 51.8512 24.0107C51.9936 23.934 52.1332 23.8537 52.2734 23.7718C52.3367 23.7336 52.4014 23.6957 52.4638 23.6569C52.6092 23.5653 52.7525 23.4736 52.8943 23.3789C52.9395 23.3483 52.9859 23.3193 53.0299 23.2891C53.2132 23.1623 53.3917 23.0321 53.5683 22.8968C53.6083 22.8662 53.6468 22.8332 53.6877 22.8014C53.8243 22.6942 53.959 22.5848 54.0904 22.4727C54.1442 22.4262 54.1967 22.3789 54.2517 22.3321C54.3067 22.2854 54.3541 22.2435 54.4045 22.1977C54.4732 22.1339 54.5389 22.0685 54.6068 22.004C54.6541 21.9591 54.7015 21.9151 54.7479 21.8693C54.9059 21.7134 55.0611 21.5549 55.2117 21.3908C55.2203 21.3826 55.2267 21.3728 55.2355 21.3642C55.3764 21.2084 55.5133 21.0489 55.6489 20.8851C55.6627 20.8662 55.6795 20.8491 55.6951 20.8308C55.7232 20.7962 55.7476 20.7602 55.7748 20.7257C55.8747 20.5998 55.9719 20.4739 56.0675 20.3447C56.1094 20.286 56.1524 20.2282 56.1955 20.1681C56.2988 20.0205 56.4012 19.8705 56.5011 19.7171C56.5249 19.6801 56.5496 19.6447 56.5735 19.6077C56.693 19.4179 56.8081 19.2244 56.9187 19.0272C56.9493 18.9756 56.9737 18.923 57.0018 18.8714C57.0556 18.7721 57.1115 18.6731 57.1632 18.5723C57.1888 18.5203 57.2139 18.4678 57.2383 18.4152C57.2707 18.348 57.3031 18.2808 57.3364 18.2136C57.4075 18.06 57.4763 17.9049 57.5429 17.7482C57.5668 17.6871 57.5924 17.6309 57.6175 17.5723C57.7045 17.3578 57.7869 17.1403 57.865 16.9199C57.8757 16.8869 57.8863 16.8533 57.8973 16.8197C57.9606 16.6291 58.022 16.4369 58.0791 16.2432C58.0987 16.1714 58.1189 16.0993 58.1375 16.0266C58.1824 15.8613 58.2243 15.6932 58.2652 15.5243C58.275 15.4784 58.2881 15.4363 58.2976 15.3905C58.3071 15.3446 58.3168 15.2988 58.3281 15.2527C58.3395 15.2065 58.3462 15.161 58.355 15.1158C58.3914 14.9398 58.4238 14.7623 58.454 14.5829L58.4519 14.5835ZM47.3 1.39586C48.2926 1.70139 49.0516 2.12761 49.6963 2.71698C50.3409 3.30635 50.8188 4.0213 51.161 4.82515C51.5032 5.62901 51.7109 6.52574 51.8005 7.479C51.89 8.43226 51.8713 9.44021 51.7629 10.4732C51.7574 10.4023 51.7488 10.3327 51.7372 10.2593C51.7256 10.186 51.71 10.1182 51.6917 10.0455C51.6731 9.97311 51.6508 9.90173 51.6251 9.8316C51.6004 9.75875 51.5716 9.68735 51.5389 9.61773C51.4851 9.50071 51.425 9.38583 51.3614 9.2737C51.3308 9.40416 51.3449 9.54868 51.3104 9.67333C51.293 9.73444 51.2728 9.79249 51.2542 9.85268C51.2187 9.9694 51.1821 10.0864 51.1414 10.1995C51.1185 10.2673 51.0928 10.3311 51.0672 10.3974C51.0284 10.4986 51.0213 10.6132 50.945 10.6975C50.9144 10.7638 50.8866 10.8295 50.8567 10.893C50.835 10.9379 50.8066 10.9911 50.7861 11.0342C50.7623 11.0834 50.7448 11.1234 50.7198 11.1707C50.7018 11.2059 50.6856 11.2441 50.6685 11.2783C50.6544 11.3033 50.6379 11.3269 50.6242 11.3516C50.5724 11.4439 50.5194 11.5343 50.465 11.6229C50.4344 11.6767 50.4014 11.7302 50.369 11.7818C50.3055 11.8793 50.2163 11.9987 50.1494 12.0922C50.1216 12.1316 50.0763 12.2041 50.0461 12.2429C49.9514 12.3687 49.8728 12.3926 49.7711 12.5099C49.769 12.5114 49.7277 12.5667 49.7259 12.5683C49.7042 12.5933 49.6889 12.6061 49.6648 12.6309C49.582 12.725 49.512 12.795 49.4237 12.883C49.4149 12.8924 49.4151 12.913 49.4053 12.9213C49.3748 12.9518 49.3232 12.985 49.2911 13.0152C49.219 13.0858 49.1582 13.1491 49.0819 13.2154C49.0357 13.256 48.9789 13.2936 48.9315 13.3333C48.8573 13.3944 48.7787 13.4555 48.7014 13.5145C48.6519 13.5524 48.6021 13.5912 48.5517 13.6272C48.5172 13.6523 48.4997 13.6902 48.4643 13.7153C48.4203 13.7458 48.3577 13.7647 48.3125 13.795C48.2621 13.8286 48.2123 13.8603 48.1597 13.893C48.0748 13.9465 47.9917 14.0003 47.9046 14.0501C47.8679 14.0709 47.8282 14.088 47.7903 14.1087C47.7774 14.1174 47.7641 14.1253 47.7503 14.1326C47.6464 14.1955 47.5444 14.2444 47.4368 14.297C47.4018 14.3153 47.3657 14.3316 47.3287 14.3455C47.1909 14.4109 47.0516 14.4742 46.9092 14.5331L46.8884 14.5408C46.8777 14.545 46.8572 14.5635 46.8469 14.5681C46.7821 14.5941 46.734 14.6022 46.6704 14.6269C46.5876 14.6575 46.5197 14.7055 46.436 14.7342C46.4328 14.7357 46.4296 14.7369 46.4262 14.7378L46.4057 14.7446C46.3327 14.7702 46.2459 14.7796 46.1705 14.8034C46.0864 14.8303 45.992 14.8669 45.9058 14.8916C45.8447 14.9099 45.7824 14.9273 45.7192 14.9444C45.674 14.9566 45.6275 14.9688 45.5823 14.9798C45.5738 14.9823 45.564 14.985 45.5518 14.9875L45.5313 14.993C45.4702 15.0082 45.4072 15.0156 45.3442 15.0299C45.3097 15.0376 45.2773 15.0467 45.244 15.0535C45.2352 15.0562 45.2269 15.0553 45.2184 15.0574C45.2098 15.0596 45.2058 15.0599 45.2003 15.0611C45.1863 15.0635 45.1843 15.0641 45.1706 15.0681C45.1361 15.0751 45.091 15.0846 45.0564 15.0916C44.9779 15.1072 44.9009 15.1256 44.8224 15.1393C44.8065 15.1421 44.7937 15.1494 44.7766 15.1518C44.746 15.1579 44.7127 15.1592 44.6816 15.1644C44.6363 15.172 44.5917 15.1812 44.5477 15.1873C44.5172 15.1916 44.4866 15.1928 44.4561 15.198C44.4347 15.2004 44.4118 15.2041 44.3892 15.2065C44.3665 15.209 44.3394 15.2105 44.3146 15.2129C44.2416 15.2224 44.1689 15.234 44.0968 15.2417C44.0687 15.2444 44.0521 15.2712 44.0237 15.2739C44.0044 15.2761 43.973 15.2524 43.9535 15.2533C43.9296 15.256 43.9034 15.2579 43.8808 15.2594C43.8313 15.2646 43.7839 15.2676 43.7353 15.2707L43.6382 15.2759C43.611 15.278 43.5966 15.2887 43.5719 15.2896C43.5693 15.2899 43.5532 15.3033 43.5532 15.3033C43.5532 15.3033 43.5299 15.3029 43.5237 15.3033C43.4904 15.3052 43.4658 15.2881 43.4322 15.2896C43.3986 15.2912 43.3684 15.2896 43.3351 15.2896C43.3018 15.2896 43.2657 15.2933 43.2333 15.2933C43.1484 15.2933 43.0631 15.2905 42.9779 15.2893C42.9296 15.2893 42.8798 15.2875 42.8303 15.2847C42.8108 15.2847 42.7918 15.2847 42.7714 15.2847C42.7564 15.2847 42.7408 15.2826 42.7252 15.2826C42.6415 15.2792 42.5596 15.2799 42.4768 15.2737C42.4484 15.2737 42.4185 15.2692 42.3907 15.2664C42.3629 15.2637 42.3442 15.264 42.3207 15.2618C42.2883 15.2594 42.2556 15.2551 42.2245 15.2514C42.1634 15.2462 42.1022 15.2346 42.0427 15.2288C41.9901 15.2218 41.94 15.2154 41.8872 15.2096C41.8713 15.2068 41.8508 15.2077 41.8346 15.205C41.7582 15.1946 41.6818 15.1818 41.6061 15.1696C41.5715 15.1634 41.537 15.1595 41.5004 15.1543C41.4939 15.1527 41.4884 15.1491 41.4823 15.1482L41.4545 15.1442C41.3274 15.1219 41.2073 15.0971 41.0815 15.0712H41.0747C41.0729 15.0696 41.0708 15.0683 41.0686 15.0672C40.9425 15.0406 40.8285 15.0162 40.702 14.9841C40.6944 14.9841 40.6876 14.9783 40.68 14.9768C40.5196 14.9358 40.3668 14.8955 40.2086 14.846C40.1991 14.8436 40.1826 14.8356 40.1731 14.8322L40.075 14.8041C39.9935 14.7782 39.9168 14.7546 39.8361 14.7262C39.7995 14.714 39.7591 14.7003 39.7234 14.6874C39.6977 14.6789 39.6727 14.6682 39.6488 14.6593C39.6183 14.6483 39.5877 14.637 39.5572 14.6257C39.445 14.5851 39.3347 14.5423 39.2241 14.4974C39.1918 14.4852 39.1612 14.4729 39.1309 14.4601C39.1138 14.454 39.0952 14.4451 39.0799 14.4393C38.7863 14.3171 38.4994 14.1873 38.2089 14.044C38.1896 14.0348 38.1691 14.0275 38.1511 14.0168C38.1392 14.011 38.1236 14.0012 38.1108 13.9951C38.0784 13.9786 38.0478 13.9645 38.0145 13.9471C37.9058 13.8918 37.8055 13.8408 37.698 13.7821C37.672 13.7684 37.6418 13.7516 37.6161 13.7381C37.5905 13.7247 37.5593 13.7054 37.5315 13.6905C37.427 13.6321 37.3289 13.5774 37.226 13.5172C37.1914 13.4989 37.1532 13.4742 37.1208 13.4543C37.1059 13.4448 37.0759 13.4283 37.0597 13.4198C36.9088 13.3318 36.771 13.2468 36.6216 13.1537L35.8969 12.6969C35.9054 12.7021 35.914 12.7079 35.9235 12.7131C36.0518 12.7934 36.181 12.871 36.3091 12.9468L36.4426 13.0235C36.5382 13.0788 36.6351 13.1338 36.7319 13.1863C36.7817 13.2141 36.8312 13.2416 36.8804 13.2673C36.9785 13.3208 37.0762 13.3718 37.1734 13.4219C37.2174 13.4442 37.2605 13.4674 37.3048 13.4891C37.4456 13.5597 37.5889 13.6275 37.7298 13.6926L37.7353 13.6947C37.8743 13.7586 38.0161 13.8191 38.1551 13.8781C38.2034 13.8979 38.2507 13.9169 38.2981 13.9358C38.3974 13.9755 38.4973 14.0134 38.5966 14.0504C38.647 14.0687 38.6965 14.0864 38.7472 14.1039C38.8569 14.1427 38.9666 14.1787 39.0766 14.2132C39.1141 14.2255 39.1508 14.2383 39.1884 14.2496C39.3369 14.2951 39.4832 14.3358 39.632 14.3736C39.7515 14.4042 39.871 14.4323 39.9913 14.4589H39.9947C39.9989 14.4601 40.0032 14.461 40.0075 14.4613C40.1258 14.4876 40.2452 14.5099 40.3638 14.5307C40.4056 14.5374 40.4478 14.5426 40.4909 14.5502C40.5724 14.5634 40.6556 14.5753 40.7384 14.5875C40.7879 14.5924 40.8376 14.5979 40.8881 14.6037C40.971 14.6133 41.0539 14.6219 41.1368 14.6297L41.2055 14.6349C41.3207 14.6434 41.4359 14.6505 41.5511 14.6547C41.5715 14.6547 41.5908 14.6547 41.6091 14.6547C41.7313 14.6584 41.8536 14.6599 41.9785 14.6584C42.1582 14.656 42.339 14.6471 42.522 14.6333C42.5526 14.6309 42.5832 14.6291 42.6113 14.6254C42.7879 14.6107 42.9635 14.5909 43.1398 14.5643C43.1948 14.5564 43.2495 14.5478 43.3045 14.5392C43.3497 14.5316 43.3962 14.5246 43.4393 14.516C43.5111 14.5032 43.5844 14.4894 43.6586 14.4748C43.6984 14.465 43.7405 14.4574 43.7836 14.4488L43.8297 14.4384C43.9214 14.4179 44.0149 14.3963 44.1087 14.3721C44.1167 14.3707 44.1245 14.3686 44.1322 14.366C44.2324 14.3412 44.3325 14.3142 44.4325 14.285C44.5801 14.242 44.7255 14.1952 44.8685 14.1472C44.8762 14.1441 44.8841 14.1414 44.8921 14.1393C45.0323 14.0904 45.1698 14.0376 45.3067 13.9826C45.3164 13.9789 45.3262 13.9746 45.3372 13.9716C45.475 13.9144 45.6098 13.8548 45.743 13.791C45.7754 13.7766 45.8065 13.7604 45.8368 13.7436C45.9355 13.6957 46.0348 13.6456 46.1307 13.5927C46.1768 13.568 46.2224 13.5402 46.266 13.5145C46.3467 13.4677 46.4264 13.4228 46.5041 13.3721C46.5535 13.3416 46.6021 13.3095 46.6495 13.2774C46.7225 13.2291 46.7937 13.179 46.8658 13.1277C46.9132 13.0938 46.9593 13.0583 47.0057 13.0238C47.0766 12.9697 47.1457 12.9144 47.2144 12.8576C49.886 10.651 49.9367 6.46189 45.1674 6.98343C44.7837 7.03507 44.4033 7.10924 44.0283 7.20555C43.635 7.30625 43.2479 7.4301 42.8691 7.57647C42.4719 7.73083 42.0837 7.90772 41.7066 8.10626C40.5355 8.71549 39.4246 9.44846 38.3619 10.2755C37.2993 11.1026 36.2901 12.0201 35.32 13.003C34.35 13.9859 33.4227 15.0293 32.526 16.106C31.6292 17.1827 30.7649 18.2927 29.9222 19.4058L29.8953 18.8647C28.8348 20.1696 27.726 21.4311 26.5284 22.5922C23.3957 25.6233 17.9191 29.5158 12.0217 28.8006C11.9969 28.7914 11.9731 28.7807 11.9484 28.77C11.9236 28.7593 11.8928 28.77 11.8689 28.7602C11.8451 28.7505 11.828 28.7468 11.8045 28.7367C11.7809 28.7266 11.7528 28.7254 11.729 28.715C11.6984 28.701 11.6602 28.6845 11.6303 28.6701C11.5386 28.6295 11.4583 28.5897 11.37 28.5451C11.3214 28.5207 11.2551 28.4788 11.2065 28.4535C11.1806 28.4388 11.1485 28.4229 11.1225 28.4104C11.0364 28.3621 10.9697 28.3065 10.886 28.2555C10.8344 28.2249 10.7944 28.1742 10.744 28.1428C10.7223 28.1284 10.6731 28.1428 10.6523 28.1287C10.5695 28.0731 10.4641 28.0065 10.3813 27.9481C10.3297 27.9121 10.304 27.8843 10.2524 27.8449C10.2349 27.8323 10.2264 27.8317 10.2093 27.8189C10.1922 27.8061 10.1155 27.8015 10.1295 27.763C10.066 27.7141 10.0211 27.66 9.95966 27.6081C9.90924 27.5656 9.86066 27.5344 9.81147 27.4898C9.79314 27.4736 9.77695 27.4544 9.7577 27.4382C9.73845 27.422 9.72715 27.4037 9.7082 27.3866C9.67032 27.3517 9.61899 27.3108 9.58324 27.2747C9.51114 27.2039 9.47478 27.1791 9.40481 27.1049C9.39748 27.0963 9.38006 27.078 9.37426 27.0706L9.35256 27.0318C9.10814 26.796 8.88174 26.4886 8.66206 26.2069C8.06139 25.4431 7.58231 24.5176 7.39624 23.4266C7.21017 22.3355 7.31864 21.0801 7.90006 19.6648C7.90526 19.7235 7.88907 19.7666 7.90006 19.8253C7.90556 19.8109 7.92909 19.7785 7.93459 19.7641C7.97523 19.6566 7.96117 19.5995 8.00547 19.4953C8.00853 19.4864 7.98836 19.4342 7.99264 19.4265C8.00883 19.3899 8.06994 19.3734 8.08705 19.3349C8.13991 19.2179 8.1891 19.121 8.24623 19.008C8.25479 18.9902 8.23707 18.8705 8.28717 18.9007C8.30459 18.8677 8.32384 18.8301 8.34095 18.7974C8.39258 18.7018 8.46652 18.5882 8.52152 18.4962C8.55207 18.4461 8.59484 18.3938 8.62692 18.3456C8.68803 18.2518 8.72806 18.1867 8.79038 18.0962C8.81819 18.0565 8.85149 18.0171 8.88205 17.978C8.89396 17.9633 8.92268 17.9389 8.93368 17.9242C9.09778 17.6991 9.27736 17.4856 9.47111 17.2854C9.47997 17.2759 9.51419 17.2628 9.52275 17.2533C9.54963 17.2264 9.58202 17.2016 9.60891 17.1757C9.68315 17.1033 9.74426 17.033 9.82278 16.9618C9.86586 16.9242 9.92055 16.8756 9.96455 16.8396C9.99907 16.8112 10.0461 16.7626 10.0806 16.7342C10.1237 16.6987 10.1723 16.6526 10.2163 16.6181C10.2603 16.5836 10.3141 16.5371 10.3581 16.5041C10.4519 16.4369 10.5564 16.2948 10.6401 16.3064C10.6722 16.2847 10.7107 16.2679 10.743 16.2453C10.8723 16.1628 10.9765 16.0816 11.1097 16.0067C11.1152 16.004 11.1451 16.0296 11.1506 16.026C11.1775 16.0122 11.1925 15.985 11.2194 15.97C11.3 15.9264 11.3773 15.9028 11.4601 15.8604C11.4852 15.8484 11.516 15.8185 11.5399 15.8066C11.586 15.7834 11.6376 15.7559 11.6862 15.7336C11.7806 15.6896 11.8793 15.6612 11.9765 15.6196C12.029 15.5982 12.088 15.5759 12.1399 15.5551C12.2423 15.5148 12.3398 15.4665 12.443 15.4305C12.4916 15.4131 12.5399 15.4189 12.5872 15.4024C12.7379 15.3517 12.872 15.3468 13.026 15.3031C13.18 15.2594 13.3358 15.216 13.4889 15.179C13.6419 15.1421 13.7944 15.1057 13.9441 15.0745C14.0938 15.0434 14.2444 15.0159 14.3929 14.9911C14.5414 14.9664 14.6878 14.9462 14.8341 14.9282L15.9847 14.787C15.8503 14.8029 15.7147 14.8228 15.5781 14.8451C15.4415 14.8674 15.3056 14.8937 15.1668 14.9221C15.0281 14.9505 14.8891 14.9832 14.747 15.0171C14.605 15.051 14.4659 15.0901 14.323 15.1304C14.18 15.1708 14.041 15.2169 13.9032 15.2643C13.8601 15.2786 13.817 15.2948 13.7739 15.3107C13.6792 15.3443 13.5845 15.3804 13.4928 15.4167C13.4424 15.4369 13.3938 15.4564 13.3456 15.4778C13.2582 15.5148 13.1699 15.5536 13.0862 15.593C13.0388 15.615 12.9924 15.6364 12.9472 15.6587C12.8515 15.7055 12.7547 15.7556 12.6621 15.8051C12.6315 15.8234 12.5973 15.839 12.5662 15.8573C12.4439 15.9261 12.3217 15.9985 12.2047 16.0742C12.1742 16.0932 12.1463 16.1146 12.1164 16.1338C12.029 16.1925 11.9407 16.2527 11.8567 16.3171C11.8148 16.3477 11.7751 16.3782 11.7363 16.4088C11.6621 16.465 11.5909 16.5234 11.5188 16.582C11.4791 16.6156 11.4393 16.6502 11.3993 16.6847C11.3294 16.7482 11.2585 16.8136 11.1894 16.8802C11.1561 16.9129 11.1216 16.945 11.0892 16.9783C10.9914 17.0785 10.8946 17.1812 10.8008 17.2887C10.7986 17.2915 10.7977 17.2942 10.7944 17.2964C8.03878 20.88 10.4005 24.1565 15.4834 22.9551C15.8632 22.856 16.2369 22.7351 16.6028 22.5931C16.9897 22.4434 17.368 22.2724 17.7361 22.081C18.9007 21.476 20.0083 20.7458 21.0633 19.9242C22.1183 19.1027 23.1269 18.1827 24.0924 17.205C25.0578 16.2273 25.9845 15.1799 26.8812 14.1008C27.778 13.0217 28.6433 11.9086 29.4884 10.7916L29.5143 11.3367C30.5785 10.0229 31.6928 8.75307 32.8972 7.5835C34.1016 6.41392 35.3986 5.34394 36.8251 4.43468C38.2882 3.49411 39.8719 2.75586 41.533 2.24004C43.2016 1.72553 45.0299 1.41083 47.0516 1.35767H47.0702L47.0864 1.36286C47.1423 1.36072 47.2447 1.39708 47.3003 1.39647L47.3 1.39586ZM18.0951 4.88106C17.799 4.79918 17.4987 4.7283 17.1919 4.66719C16.8852 4.60608 16.5708 4.55414 16.25 4.5129C15.9291 4.47165 15.6056 4.44171 15.2695 4.42246C14.9334 4.40321 14.5958 4.39588 14.2469 4.40016C13.898 4.40443 13.5472 4.42032 13.1855 4.44751C12.8237 4.47471 12.4522 4.51656 12.077 4.56973C11.7018 4.62289 11.3132 4.68797 10.9196 4.7671C10.5261 4.84623 10.1253 4.93973 9.71309 5.04636C9.50655 5.09891 9.30185 5.15849 9.09958 5.22326C9.03512 5.24373 8.97157 5.26634 8.90801 5.28773C8.7693 5.33447 8.63029 5.38152 8.49249 5.43255C8.41825 5.46096 8.34492 5.4906 8.27098 5.51871C8.1448 5.56943 8.01678 5.62228 7.89181 5.67667C7.81757 5.70906 7.74241 5.74205 7.66694 5.77566C7.54106 5.83341 7.41732 5.89451 7.29328 5.95593C7.245 5.98006 7.19642 6.00053 7.14815 6.02498C7.12768 6.03598 7.10721 6.04972 7.0846 6.06103C6.94375 6.13405 6.80595 6.21196 6.66694 6.29109C6.61866 6.31951 6.56703 6.34548 6.51936 6.37389C6.3333 6.48419 6.15028 6.59785 5.96941 6.71762C5.92877 6.7445 5.88997 6.77384 5.84903 6.80133C5.73384 6.87986 5.61774 6.95899 5.50255 7.04179C5.48086 7.05829 5.45947 7.07631 5.43778 7.09281C5.37667 7.13833 5.31557 7.18691 5.25446 7.23427C5.14141 7.32002 5.0302 7.40812 4.92082 7.49856C4.89271 7.523 4.86155 7.5453 4.83252 7.56944C4.79708 7.59999 4.76347 7.63055 4.72895 7.6611C4.62476 7.75276 4.52027 7.84442 4.41791 7.93761C4.34948 7.98466 4.2957 8.05157 4.2346 8.10901C4.12888 8.21075 4.01645 8.30455 3.9144 8.41118C3.86246 8.46496 3.80441 8.51965 3.75369 8.57464C3.61925 8.71794 3.49826 8.86398 3.37024 9.01491C3.35405 9.03477 3.3345 9.05341 3.31708 9.07235C3.17409 9.24406 3.03783 9.41883 2.90217 9.59909C2.89361 9.61009 2.88995 9.63148 2.88048 9.64278C2.84992 9.68647 2.80929 9.72375 2.77812 9.76683C2.68646 9.89515 2.59908 10.0213 2.512 10.1539C2.46465 10.2236 2.41515 10.2963 2.37024 10.3678C2.32532 10.4393 2.28622 10.5221 2.241 10.5951C2.21044 10.6477 2.17286 10.6898 2.14139 10.7436C2.0974 10.8191 2.05493 10.8964 2.01185 10.9749C1.94066 11.1041 1.86703 11.2303 1.79798 11.3629C1.75948 11.4387 1.72098 11.5267 1.6834 11.6046C1.61007 11.7534 1.5398 11.8912 1.47197 12.0446C1.44845 12.0962 1.42798 12.1576 1.40537 12.2102C1.39802 12.2272 1.38955 12.2437 1.38001 12.2597C1.3574 12.3174 1.33968 12.3678 1.31493 12.4247C1.27521 12.5246 1.23274 12.6229 1.19516 12.7229C1.18325 12.7534 1.17041 12.7879 1.1585 12.8188C1.13161 12.8912 1.10289 12.967 1.07906 13.0403C1.05523 13.1136 1.03476 13.1802 1.01093 13.2542C0.993815 13.3052 0.973956 13.3623 0.957763 13.414C0.934237 13.4907 0.915294 13.5701 0.892684 13.6477C0.877713 13.6993 0.859076 13.754 0.843799 13.8075C0.822412 13.8823 0.800413 13.9554 0.782693 14.0311C0.764972 14.1069 0.743279 14.1864 0.726169 14.264C0.717309 14.2985 0.713031 14.3287 0.704476 14.3629C0.667813 14.5206 0.64337 14.6841 0.612817 14.8463C0.612817 14.8487 0.612817 14.8515 0.612817 14.8549C0.612657 14.8558 0.612657 14.8567 0.612817 14.8576C0.582263 15.0229 0.544683 15.1851 0.517491 15.3529C0.511074 15.3901 0.508325 15.4314 0.501909 15.4684C0.498548 15.4937 0.488465 15.5145 0.48541 15.5396C0.47991 15.5753 0.479605 15.6129 0.475327 15.6492C0.46555 15.7213 0.458217 15.7791 0.449357 15.8527C0.438663 15.9413 0.427053 16.0342 0.417276 16.1228C0.412082 16.1796 0.40536 16.242 0.400166 16.3C0.397722 16.3275 0.391917 16.3611 0.390695 16.3895C0.374502 16.5628 0.363502 16.7354 0.354947 16.9129C0.354947 16.9233 0.352809 16.9435 0.352809 16.9539C0.352809 16.993 0.352809 17.026 0.35067 17.0642C0.346393 17.1943 0.331727 17.3064 0.330811 17.4384C0.330811 17.4937 0.330811 17.5561 0.330811 17.612C0.330811 17.6777 0.330811 17.747 0.330811 17.8127C0.330811 17.8738 0.335088 17.9468 0.337227 18.0092C0.337227 18.1351 0.348226 18.2649 0.354642 18.3926C0.354642 18.4363 0.354642 18.4785 0.358003 18.5225C0.358003 18.5371 0.359531 18.553 0.359531 18.5662C0.371446 18.773 0.370224 18.9591 0.390084 19.1705C0.390084 19.1849 0.407499 19.2182 0.408721 19.2316C0.413915 19.2866 0.382445 19.3712 0.390084 19.4271C0.402916 19.5686 0.385501 19.7602 0.437441 19.8573C0.443552 19.9032 0.453329 19.9795 0.458828 20.0251C0.470744 20.1079 0.498548 20.1778 0.510463 20.2616C0.522379 20.3453 0.556599 20.3908 0.57157 20.4776C0.586541 20.5643 0.589902 20.6676 0.606095 20.751C0.622288 20.8344 0.636648 20.9239 0.653147 21.0101C0.662924 21.0602 0.675756 21.1054 0.686755 21.1565C0.697755 21.2075 0.703865 21.2432 0.713642 21.2909C0.723419 21.3386 0.739307 21.3929 0.749084 21.4412C0.758861 21.4895 0.772305 21.5295 0.78422 21.5778C0.796136 21.6261 0.806219 21.6771 0.819967 21.7235L2.95869 20.5726C2.90797 20.3471 2.86276 20.1244 2.81968 19.9019C2.80562 19.8227 2.79167 19.7441 2.77782 19.6661C2.75093 19.5084 2.72496 19.3511 2.70235 19.1956C2.69166 19.1176 2.67883 19.04 2.66996 18.9633C2.64552 18.7886 2.62597 18.6153 2.60886 18.4439C2.60244 18.3932 2.5948 18.3422 2.59053 18.2912C2.57006 18.0678 2.55508 17.8482 2.54439 17.6309C2.54439 17.5897 2.54439 17.55 2.54011 17.5087C2.53248 17.3352 2.52911 17.1638 2.5282 16.9942C2.5282 16.9331 2.5282 16.872 2.5282 16.8087C2.53003 16.6361 2.53339 16.4638 2.53981 16.2933C2.54195 16.2597 2.54195 16.2261 2.54409 16.1934C2.55264 15.9917 2.56792 15.7931 2.58717 15.5967C2.59144 15.5451 2.59694 15.4934 2.60244 15.4418C2.61833 15.2915 2.63452 15.1427 2.65622 14.9951C2.66355 14.9401 2.67119 14.8839 2.67883 14.8286C2.70938 14.6382 2.73993 14.4494 2.77446 14.2633C2.7766 14.2566 2.77782 14.2496 2.77996 14.2426C2.81418 14.066 2.8542 13.8933 2.89514 13.7213C2.91225 13.6486 2.9315 13.578 2.95105 13.5075C2.98161 13.3892 3.01216 13.2719 3.04699 13.1558C3.06838 13.0839 3.09017 13.0126 3.11238 12.9419C3.1469 12.8273 3.1857 12.7143 3.22451 12.6012C3.24803 12.5322 3.27064 12.4659 3.29539 12.3978C3.33847 12.2789 3.38491 12.1616 3.43318 12.0437C3.45579 11.9884 3.47626 11.9306 3.50101 11.8753C3.52576 11.82 3.55265 11.7607 3.57648 11.7039C3.64003 11.5594 3.7045 11.4167 3.77324 11.2762C3.80777 11.2053 3.84351 11.1371 3.87896 11.0675C3.94251 10.9453 4.00697 10.8231 4.0748 10.703C4.11452 10.6321 4.15332 10.5634 4.19518 10.4937C4.26423 10.3762 4.33501 10.2603 4.40753 10.146C4.44847 10.0824 4.49033 10.0168 4.53218 9.9529C4.61407 9.83068 4.699 9.71 4.78516 9.58931C4.82061 9.54012 4.85513 9.48941 4.89302 9.44113C5.01523 9.27492 5.14294 9.11279 5.27615 8.95472C5.29235 8.93609 5.30671 8.9205 5.32229 8.90217C5.43961 8.76346 5.5603 8.62719 5.68404 8.49551C5.73048 8.4454 5.77967 8.39713 5.82825 8.34733C5.91991 8.24986 6.01646 8.15392 6.11362 8.06013C6.16953 8.00666 6.22666 7.95472 6.28258 7.90247C6.37729 7.81509 6.47292 7.73107 6.56886 7.64735C6.62691 7.59724 6.68496 7.54653 6.74424 7.49825C6.84537 7.41454 6.94894 7.33265 7.05221 7.25383C7.10812 7.21075 7.16404 7.16706 7.22117 7.12489C7.34338 7.0317 7.47293 6.94371 7.60003 6.85572C7.6367 6.83066 7.67214 6.80408 7.70972 6.78086C7.87562 6.67057 8.04336 6.56455 8.21476 6.46433C8.25876 6.43714 8.30489 6.41361 8.35011 6.38764C8.47721 6.31462 8.60523 6.24282 8.73447 6.1756C8.79802 6.14291 8.86157 6.11114 8.92604 6.07905C9.04031 6.02223 9.1555 5.96723 9.27068 5.91437C9.33943 5.88382 9.40848 5.85327 9.47936 5.82271C9.59241 5.77352 9.70759 5.72617 9.8237 5.68034C9.89275 5.65284 9.9618 5.62534 10.0305 5.59845C10.1564 5.55293 10.2814 5.50893 10.4082 5.46677C10.4693 5.44752 10.5276 5.42522 10.5881 5.40566C10.7742 5.3473 10.9627 5.292 11.1509 5.24373C11.5298 5.14535 11.8992 5.06041 12.2618 4.98769C12.6245 4.91498 12.9777 4.85387 13.3245 4.80437C13.6713 4.75488 14.011 4.71913 14.3437 4.69224C14.6765 4.66536 15.0025 4.65253 15.3214 4.64825C15.6404 4.64397 15.9554 4.65252 16.261 4.66963C16.5665 4.68674 16.8693 4.71485 17.1632 4.75274C17.4571 4.79063 17.7452 4.83676 18.0285 4.8939C18.3117 4.95103 18.5882 5.01611 18.8595 5.09035L18.0951 4.88106Z" fill="white"/>
<path fill-rule="evenodd" clip-rule="evenodd" d="M14.5006 6.41018C15.1909 6.40211 15.8807 6.44715 16.5641 6.54492C17.2516 6.64331 17.9301 6.79657 18.5932 7.00322C19.9535 7.42702 21.2313 8.08029 22.3714 8.9348C24.2559 10.3476 25.9021 12.0414 27.4582 13.8007C29.0143 15.56 30.4744 17.3821 31.9932 19.0595C33.512 20.7369 35.0867 22.2618 36.8661 23.4305C38.6456 24.5991 40.6269 25.4094 42.9627 25.6511C43.1316 25.669 43.2998 25.6842 43.4675 25.6966C43.6346 25.7088 43.8002 25.7189 43.967 25.7271C44.1338 25.7354 44.2985 25.7403 44.4623 25.7427C44.626 25.7452 44.7916 25.7452 44.953 25.7427C47.1574 25.7122 49.2179 25.2441 51.0358 24.403C52.8537 23.5618 54.4327 22.3455 55.6719 20.8215C56.9112 19.2975 57.8107 17.4607 58.2736 15.3815C58.7364 13.3024 58.7587 10.9721 58.243 8.46367C59.1086 11.0194 59.3594 13.5697 59.0924 15.9669C58.8257 18.3589 58.0429 20.5985 56.8427 22.5359C55.6426 24.4732 54.0291 26.1072 52.0914 27.2939C50.1537 28.4806 47.8958 29.2206 45.4094 29.366C45.3361 29.3703 45.264 29.3737 45.1907 29.3773C45.1173 29.381 45.0477 29.3841 44.9747 29.3871C44.9016 29.3902 44.8323 29.3914 44.7608 29.3929C44.6893 29.3944 44.6184 29.3957 44.5469 29.396C42.9496 29.4229 41.3561 29.2302 39.8112 28.8234C38.3507 28.4381 37.0003 27.8763 35.7317 27.1974C34.4631 26.5185 33.2777 25.7207 32.1463 24.8643C31.0149 24.0079 29.9385 23.0901 28.8914 22.1732C27.8444 21.2563 26.8224 20.3336 25.8056 19.4708C24.7888 18.6079 23.7689 17.8023 22.727 17.1127C21.6852 16.4231 20.6188 15.8514 19.4988 15.4552C18.3787 15.0589 17.2073 14.838 15.9586 14.8526C15.7251 14.8561 15.4895 14.8673 15.2516 14.8863C15.0137 14.9052 14.7722 14.9336 14.5271 14.9715C14.2827 15.0076 14.0352 15.0543 13.7844 15.1093C13.5336 15.1643 13.2806 15.23 13.0224 15.3042C12.3642 15.4899 11.7294 15.7504 11.1305 16.0806C10.5453 16.4042 10.008 16.8077 9.53414 17.2795C9.04719 17.7678 8.63736 18.3273 8.31873 18.9388C7.48249 20.5359 7.32209 22.1298 7.73822 23.8961C7.92053 24.6807 8.23826 25.4275 8.67712 26.103C9.08341 26.7248 9.58919 27.2756 10.1742 27.7333C10.7361 28.1748 11.3586 28.5332 12.0224 28.7977C11.5131 28.7596 11.0416 28.7186 10.5949 28.6615C10.165 28.6092 9.73815 28.5339 9.3163 28.4357C8.90151 28.3397 8.49435 28.2133 8.09814 28.0574C7.6707 27.888 7.25595 27.6882 6.85707 27.4595C5.57996 26.7356 4.46627 25.7555 3.58586 24.5807C2.70545 23.406 2.07734 22.062 1.74093 20.633C1.40915 19.2313 1.36818 17.7765 1.62055 16.3583C1.88478 14.8801 2.46564 13.4766 3.32328 12.244C3.95384 11.3347 4.69711 10.509 5.53534 9.78662C6.36199 9.07398 7.27076 8.46256 8.24235 7.96534C9.20884 7.46919 10.2292 7.08588 11.2833 6.82296C12.3361 6.56081 13.4157 6.42187 14.5006 6.40896V6.41018ZM14.0982 0.717814C11.5244 0.746534 9.20967 1.42298 7.23501 2.58645C5.26036 3.74991 3.62973 5.39734 2.41799 7.36711C1.20625 9.33688 0.420728 11.625 0.127417 14.0748C-0.165283 16.519 0.0391185 19.1234 0.81517 21.7247C0.302793 19.4802 0.22641 17.4139 0.495584 15.5529C0.764757 13.6919 1.37827 12.0311 2.24476 10.6054C3.91792 7.85372 6.59817 5.86291 9.71593 5.05607C10.1262 4.94913 10.5283 4.85604 10.9225 4.77681C11.3166 4.69757 11.702 4.63178 12.0786 4.57943C12.4566 4.52688 12.8256 4.48564 13.1874 4.45722C13.5491 4.42881 13.9033 4.41353 14.2497 4.40986C14.9211 4.40086 15.5922 4.43853 16.2583 4.52261C17.4842 4.67824 18.6822 5.0053 19.8171 5.4942C20.3627 5.72925 20.8933 5.99761 21.4059 6.29775C22.8547 7.1459 24.1649 8.22993 25.4047 9.44717C26.6446 10.6644 27.8157 12.0136 28.9871 13.3913C30.1585 14.7689 31.3281 16.1753 32.5713 17.5099C33.8145 18.8444 35.1267 20.1044 36.5854 21.1912C37.1523 21.616 37.7555 21.99 38.388 22.3092C39.0053 22.6218 39.648 22.8816 40.3092 23.0858C40.9626 23.2878 41.6311 23.4371 42.3083 23.5325C42.9821 23.6265 43.6622 23.6691 44.3425 23.6599C45.4131 23.645 46.4783 23.5061 47.517 23.2462C48.5601 22.987 49.5703 22.6098 50.528 22.1219C51.4923 21.6304 52.3961 21.0282 53.221 20.3275C54.0591 19.6146 54.8057 18.8007 55.4437 17.9043C56.4794 16.4554 57.1304 14.7674 57.3356 12.9982C57.5408 11.2291 57.2935 9.43683 56.617 7.78936C56.1739 6.70552 55.552 5.70372 54.7773 4.82569C54.2908 4.27371 53.7453 3.77661 53.1507 3.34325C52.5731 2.92303 51.9517 2.56664 51.2973 2.28031C50.641 1.99394 49.9577 1.77388 49.2576 1.62341C48.538 1.46907 47.8059 1.38 47.0703 1.35729C47.66 1.53817 48.2533 1.85623 48.8054 2.29497C49.3879 2.76295 49.8881 3.32491 50.2854 3.95768C50.7301 4.66576 51.0529 5.44344 51.2402 6.25833C51.66 8.06311 51.4889 9.64394 50.6203 11.2645C50.2939 11.8735 49.8788 12.4307 49.3887 12.9177C48.9128 13.3865 48.3746 13.7874 47.7892 14.1093C47.192 14.437 46.5597 14.6963 45.9044 14.8823C45.6742 14.9487 45.4461 15.0067 45.22 15.0564C44.9939 15.1061 44.7698 15.1475 44.5478 15.1805C44.3251 15.2135 44.1054 15.2401 43.887 15.2566C43.6685 15.2731 43.4519 15.285 43.2377 15.2871C41.113 15.3137 39.1582 14.625 37.2584 13.5331C35.3586 12.4411 33.5099 10.9452 31.6088 9.35887C29.7078 7.77255 27.7457 6.09487 25.6219 4.64696C23.4982 3.19904 21.2033 1.97538 18.6393 1.3023C18.2421 1.19872 17.8504 1.1092 17.4639 1.03404C17.0774 0.958879 16.6921 0.89655 16.3133 0.848887C15.9344 0.801224 15.5608 0.765477 15.1917 0.743784C14.8226 0.722091 14.4575 0.712314 14.0982 0.717814Z" fill="white"/>
</svg>
